<svg width="800" height="500" xmlns="http://www.w3.org/2000/svg">
  <defs>
    <linearGradient id="bgGradient" x1="0%" y1="0%" x2="100%" y2="100%">
      <stop offset="0%" style="stop-color:#18181b;stop-opacity:1" />
      <stop offset="100%" style="stop-color:#09090b;stop-opacity:1" />
    </linearGradient>
  </defs>
  
  <!-- Background -->
  <rect width="800" height="500" fill="url(#bgGradient)"/>
  
  <!-- Mock Browser Chrome -->
  <rect x="0" y="0" width="800" height="40" fill="#27272a"/>
  <circle cx="25" cy="20" r="6" fill="#ef4444"/>
  <circle cx="45" cy="20" r="6" fill="#eab308"/>
  <circle cx="65" cy="20" r="6" fill="#22c55e"/>
  
  <!-- Mock Navbar -->
  <rect x="0" y="40" width="800" height="60" fill="#09090b"/>
  <rect x="30" y="55" width="80" height="30" rx="6" fill="#E6A817"/>
  
  <!-- Sidebar -->
  <rect x="0" y="100" width="200" height="400" fill="#18181b"/>
  <rect x="20" y="120" width="160" height="12" rx="3" fill="#E6A817"/>
  <rect x="20" y="145" width="140" height="10" rx="3" fill="#52525b"/>
  
  <!-- Main Content -->
  <!-- Resource Header -->
  <rect x="220" y="120" width="560" height="80" rx="8" fill="#27272a"/>
  <rect x="240" y="140" width="200" height="20" rx="4" fill="#d4d4d8"/>
  <rect x="240" y="170" width="100" height="16" rx="4" fill="#22c55e"/>
  <rect x="660" y="140" width="100" height="36" rx="6" fill="#E6A817"/>
  
  <!-- Tabs -->
  <rect x="220" y="215" width="560" height="40" fill="#27272a"/>
  <rect x="240" y="225" width="60" height="20" rx="4" fill="#E6A817"/>
  <rect x="320" y="225" width="60" height="20" rx="4" fill="#71717a"/>
  <rect x="400" y="225" width="60" height="20" rx="4" fill="#71717a"/>
  <rect x="480" y="225" width="60" height="20" rx="4" fill="#71717a"/>
  
  <!-- Content Area -->
  <rect x="220" y="265" width="560" height="215" rx="8" fill="#27272a"/>
  
  <!-- YAML Content Mock -->
  <rect x="240" y="285" width="40" height="10" rx="2" fill="#71717a"/>
  <rect x="290" y="285" width="80" height="10" rx="2" fill="#a1a1aa"/>
  <rect x="380" y="285" width="120" height="10" rx="2" fill="#E6A817"/>
  
  <rect x="240" y="305" width="60" height="10" rx="2" fill="#71717a"/>
  <rect x="310" y="305" width="100" height="10" rx="2" fill="#a1a1aa"/>
  <rect x="420" y="305" width="80" height="10" rx="2" fill="#3b82f6"/>
  
  <rect x="240" y="325" width="40" height="10" rx="2" fill="#71717a"/>
  <rect x="290" y="325" width="150" height="10" rx="2" fill="#a1a1aa"/>
  
  <rect x="260" y="345" width="60" height="10" rx="2" fill="#71717a"/>
  <rect x="330" y="345" width="100" height="10" rx="2" fill="#a1a1aa"/>
  <rect x="440" y="345" width="120" height="10" rx="2" fill="#22c55e"/>
  
  <rect x="260" y="365" width="60" height="10" rx="2" fill="#71717a"/>
  <rect x="330" y="365" width="80" height="10" rx="2" fill="#a1a1aa"/>
  <rect x="420" y="365" width="60" height="10" rx="2" fill="#ef4444"/>
  
  <rect x="240" y="385" width="50" height="10" rx="2" fill="#71717a"/>
  <rect x="300" y="385" width="200" height="10" rx="2" fill="#a1a1aa"/>
  
  <!-- Status Section -->
  <rect x="240" y="415" width="100" height="12" rx="3" fill="#d4d4d8"/>
  <rect x="240" y="435" width="80" height="10" rx="2" fill="#71717a"/>
  <rect x="330" y="435" width="60" height="10" rx="2" fill="#22c55e"/>
  
  <rect x="420" y="435" width="80" height="10" rx="2" fill="#71717a"/>
  <rect x="510" y="435" width="80" height="10" rx="2" fill="#a1a1aa"/>
</svg>