<svg width="800" height="500" xmlns="http://www.w3.org/2000/svg">
  <defs>
    <linearGradient id="bgGradient" x1="0%" y1="0%" x2="100%" y2="100%">
      <stop offset="0%" style="stop-color:#18181b;stop-opacity:1" />
      <stop offset="100%" style="stop-color:#09090b;stop-opacity:1" />
    </linearGradient>
  </defs>
  
  <!-- Background -->
  <rect width="800" height="500" fill="url(#bgGradient)"/>
  
  <!-- Mock Browser Chrome -->
  <rect x="0" y="0" width="800" height="40" fill="#27272a"/>
  <circle cx="25" cy="20" r="6" fill="#ef4444"/>
  <circle cx="45" cy="20" r="6" fill="#eab308"/>
  <circle cx="65" cy="20" r="6" fill="#22c55e"/>
  
  <!-- Mock Navbar -->
  <rect x="0" y="40" width="800" height="60" fill="#09090b"/>
  <rect x="30" y="55" width="80" height="30" rx="6" fill="#E6A817"/>
  
  <!-- Sidebar -->
  <rect x="0" y="100" width="200" height="400" fill="#18181b"/>
  <rect x="20" y="120" width="160" height="12" rx="3" fill="#E6A817"/>
  <rect x="20" y="145" width="140" height="10" rx="3" fill="#52525b"/>
  <rect x="20" y="165" width="150" height="10" rx="3" fill="#52525b"/>
  
  <!-- Main Content - Resource List -->
  <rect x="220" y="120" width="560" height="50" rx="8" fill="#27272a"/>
  <rect x="240" y="135" width="150" height="20" rx="4" fill="#d4d4d8"/>
  <rect x="600" y="135" width="80" height="30" rx="6" fill="#E6A817"/>
  <rect x="700" y="135" width="60" height="30" rx="6" fill="#3f3f46"/>
  
  <!-- Filter Bar -->
  <rect x="220" y="185" width="560" height="50" rx="8" fill="#27272a"/>
  <rect x="240" y="200" width="120" height="20" rx="4" fill="#3f3f46"/>
  <rect x="380" y="200" width="100" height="20" rx="4" fill="#3f3f46"/>
  <rect x="500" y="200" width="100" height="20" rx="4" fill="#3f3f46"/>
  
  <!-- Resource Table -->
  <rect x="220" y="250" width="560" height="230" rx="8" fill="#27272a"/>
  
  <!-- Table Header -->
  <rect x="240" y="270" width="100" height="12" rx="3" fill="#d4d4d8"/>
  <rect x="380" y="270" width="80" height="12" rx="3" fill="#d4d4d8"/>
  <rect x="500" y="270" width="80" height="12" rx="3" fill="#d4d4d8"/>
  <rect x="620" y="270" width="80" height="12" rx="3" fill="#d4d4d8"/>
  <rect x="720" y="270" width="40" height="12" rx="3" fill="#d4d4d8"/>
  
  <rect x="240" y="295" width="520" height="2" fill="#3f3f46"/>
  
  <!-- Row 1 -->
  <rect x="240" y="315" width="120" height="10" rx="2" fill="#71717a"/>
  <rect x="380" y="315" width="60" height="10" rx="2" fill="#22c55e"/>
  <rect x="500" y="315" width="80" height="10" rx="2" fill="#a1a1aa"/>
  <rect x="620" y="315" width="80" height="10" rx="2" fill="#a1a1aa"/>
  <rect x="720" y="315" width="40" height="10" rx="2" fill="#E6A817"/>
  
  <!-- Row 2 -->
  <rect x="240" y="345" width="120" height="10" rx="2" fill="#71717a"/>
  <rect x="380" y="345" width="60" height="10" rx="2" fill="#22c55e"/>
  <rect x="500" y="345" width="80" height="10" rx="2" fill="#a1a1aa"/>
  <rect x="620" y="345" width="80" height="10" rx="2" fill="#a1a1aa"/>
  <rect x="720" y="345" width="40" height="10" rx="2" fill="#E6A817"/>
  
  <!-- Row 3 -->
  <rect x="240" y="375" width="120" height="10" rx="2" fill="#71717a"/>
  <rect x="380" y="375" width="60" height="10" rx="2" fill="#E6A817"/>
  <rect x="500" y="375" width="80" height="10" rx="2" fill="#a1a1aa"/>
  <rect x="620" y="375" width="80" height="10" rx="2" fill="#a1a1aa"/>
  <rect x="720" y="375" width="40" height="10" rx="2" fill="#E6A817"/>
  
  <!-- Row 4 -->
  <rect x="240" y="405" width="120" height="10" rx="2" fill="#71717a"/>
  <rect x="380" y="405" width="60" height="10" rx="2" fill="#ef4444"/>
  <rect x="500" y="405" width="80" height="10" rx="2" fill="#a1a1aa"/>
  <rect x="620" y="405" width="80" height="10" rx="2" fill="#a1a1aa"/>
  <rect x="720" y="405" width="40" height="10" rx="2" fill="#E6A817"/>
  
  <!-- Row 5 -->
  <rect x="240" y="435" width="120" height="10" rx="2" fill="#71717a"/>
  <rect x="380" y="435" width="60" height="10" rx="2" fill="#22c55e"/>
  <rect x="500" y="435" width="80" height="10" rx="2" fill="#a1a1aa"/>
  <rect x="620" y="435" width="80" height="10" rx="2" fill="#a1a1aa"/>
  <rect x="720" y="435" width="40" height="10" rx="2" fill="#E6A817"/>
</svg>